# xmcd
#
# Track frame offsets: 
#        150
#        13498
#        23725
#        34159
#        44064
#        57368
#        71313
#        83977
#        99399
#        110921
#        123920
#        136360
#
# Disc length: 1987 seconds
#
# Revision: 0
# Processed by: cddbd v1.5.2PL0 Copyright (c) Steve Scherf et al.
# Submitted via: ExactAudioCopy v1.3
#
DISCID=a907c10c
DTITLE=Magic Sam and Shakey Jake - Magic Rocker
DYEAR=1980
DGENRE=Electric Blues, Chicago Blues
TTITLE0=Everything Gonna Be Alright
TTITLE1=Look Watcha Done
TTITLE2=All My Whole Life
TTITLE3=Love Me With A Feeling
TTITLE4=All Your Love
TTITLE5=Call Me If You Need Me
TTITLE6=Roll Your Money Maker
TTITLE7=Easy Baby
TTITLE8=Magic Rocker
TTITLE9=Love Me This Way
TTITLE10=21 Days In Jail
TTITLE11=All Night Long
EXTD=
EXTT0=
EXTT1=
EXTT2=
EXTT3=
EXTT4=
EXTT5=
EXTT6=
EXTT7=
EXTT8=
EXTT9=
EXTT10=
EXTT11=
PLAYORDER=
